# xmcd
#
# Track frame offsets:
# 150
# 20421
# 32564
# 52554
# 79662
# 90911
# 111027
# 120149
# 134779
# 155206
# 177264
# 213930
# 229725
#
# Disc length: 3371 seconds
#
# Revision: 0
# Processed by: cddbd v1.4PL0 Copyright (c) Steve Scherf et al.
# Submitted via: Audion 3.0.2 (http://www.panic.com/audion/)
#
DISCID=970d290d
DTITLE=Soul Doubt - Soul Doubt - Live
DYEAR=1900
DGENRE=
TTITLE0=Midnight Hour
TTITLE1=Soul Man
TTITLE2=Treat Her Right
TTITLE3=Gimme Some Lovin'
TTITLE4=Hard To Handle
TTITLE5=Land of a Thousand Dances
TTITLE6=Mr. Pityful
TTITLE7=Mamma Told Me Not to Come
TTITLE8=Mustang Sally
TTITLE9=Sweet Home Chicago
TTITLE10=Johnny B. Goode
TTITLE11=Take Me To The River
TTITLE12=Hallelujah, I Love Her So
EXTD=
EXTT0=
EXTT1=
EXTT2=
EXTT3=
EXTT4=
EXTT5=
EXTT6=
EXTT7=
EXTT8=
EXTT9=
EXTT10=
EXTT11=
EXTT12=
PLAYORDER=
